<svg fill="#A096A2" xmlns="http://www.w3.org/2000/svg" data-name="Layer 1" viewBox="0 0 24 30" x="0px" y="0px"><title>close-circle</title><path d="M15.71,8.29a1,1,0,0,0-1.41,0L12,10.59,9.71,8.29A1,1,0,0,0,8.29,9.71L10.59,12,8.29,14.29a1,1,0,1,0,1.41,1.41L12,13.41l2.29,2.29a1,1,0,0,0,1.41-1.41L13.41,12l2.29-2.29A1,1,0,0,0,15.71,8.29Z"/><path d="M12,1A11,11,0,1,0,23,12,11,11,0,0,0,12,1Zm0,20a9,9,0,1,1,9-9A9,9,0,0,1,12,21Z"/><text x="0" y="39" fill="#000000" font-size="5px" font-weight="bold" font-family="'Helvetica Neue', Helvetica, Arial-Unicode, Arial, Sans-serif">Created by Omar Safaa</text><text x="0" y="44" fill="#000000" font-size="5px" font-weight="bold" font-family="'Helvetica Neue', Helvetica, Arial-Unicode, Arial, Sans-serif">from the Noun Project</text></svg>