<svg xmlns="http://www.w3.org/2000/svg" xmlns:xlink="http://www.w3.org/1999/xlink" version="1.1" x="0px" y="0px" viewBox="0 0 100 100" style="enable-background:new 0 0 100 100;" xml:space="preserve"><style type="text/css">
</style><path class="st0" d="M85.5,55.5h-70c-2.8,0-5-2.2-5-5c0-2.8,2.2-5,5-5h70c2.8,0,5,2.2,5,5C90.5,53.3,88.3,55.5,85.5,55.5z   M85.5,30.5h-70c-2.8,0-5-2.2-5-5s2.2-5,5-5h70c2.8,0,5,2.2,5,5S88.3,30.5,85.5,30.5z M15.5,70.5h70c2.8,0,5,2.2,5,5s-2.2,5-5,5h-70  c-2.8,0-5-2.2-5-5S12.7,70.5,15.5,70.5z"/><text x="0" y="115" fill="#000000" font-size="5px" font-weight="bold" font-family="'Helvetica Neue', Helvetica, Arial-Unicode, Arial, Sans-serif">Created by Rohith M S</text><text x="0" y="120" fill="#000000" font-size="5px" font-weight="bold" font-family="'Helvetica Neue', Helvetica, Arial-Unicode, Arial, Sans-serif">from the Noun Project</text></svg>