<svg version="1.1" viewBox="0 0 26.458 5.2917" xmlns="http://www.w3.org/2000/svg">
 <g stroke-width=".26458">
  <path transform="matrix(2.3042 -.045932 .043703 2.4217 -2.5555 -3.6754)" d="m3.3598 2.4172-0.7221 0.50024 0.25629 0.84023-0.6989-0.53218-0.71991 0.50339 0.29016-0.82914-0.70121-0.52912 0.87823 0.019742 0.28654-0.8304 0.25261 0.84134z"/>
  <path transform="matrix(2.3042 -.045932 .043703 2.4217 8.0278 -3.6754)" d="m3.3598 2.4172-0.7221 0.50024 0.25629 0.84023-0.6989-0.53218-0.71991 0.50339 0.29016-0.82914-0.70121-0.52912 0.87823 0.019742 0.28654-0.8304 0.25261 0.84134z"/>
  <path transform="matrix(2.3042 -.045932 .043703 2.4217 2.7361 -3.6754)" d="m3.3598 2.4172-0.7221 0.50024 0.25629 0.84023-0.6989-0.53218-0.71991 0.50339 0.29016-0.82914-0.70121-0.52912 0.87823 0.019742 0.28654-0.8304 0.25261 0.84134z"/>
  <path transform="matrix(2.3042 -.045932 .043703 2.4217 18.611 -3.6754)" d="m3.3598 2.4172-0.7221 0.50024 0.25629 0.84023-0.6989-0.53218-0.71991 0.50339 0.29016-0.82914-0.70121-0.52912 0.87823 0.019742 0.28654-0.8304 0.25261 0.84134z"/>
  <path transform="matrix(2.3042 -.045932 .043703 2.4217 13.319 -3.6754)" d="m3.3598 2.4172-0.7221 0.50024 0.25629 0.84023-0.6989-0.53218-0.71991 0.50339 0.29016-0.82914-0.70121-0.52912 0.87823 0.019742 0.28654-0.8304 0.25261 0.84134z"/>
 </g>
</svg>
