<svg xmlns="http://www.w3.org/2000/svg" width="100" height="100" viewBox="0 0 26.46 26.46"><path d="M13.23 6.75a6.48 6.48 0 0 0-6.48 6.48 6.48 6.48 0 0 0 6.48 6.48 6.48 6.48 0 0 0 6.48-6.48 6.48 6.48 0 0 0-6.48-6.48zm0 .65a5.83 5.83 0 0 1 5.83 5.83 5.83 5.83 0 0 1-5.83 5.83 5.83 5.83 0 0 1-5.83-5.83 5.83 5.83 0 0 1 5.83-5.83zm-.25 1.94a.4.4 0 0 0-.4.4v2.84H9.74a.4.4 0 0 0-.4.4v.5c0 .22.18.4.4.4h2.84v2.84c0 .22.18.4.4.4h.5a.4.4 0 0 0 .4-.4v-2.84h2.84a.4.4 0 0 0 .4-.4v-.5a.4.4 0 0 0-.4-.4h-2.84V9.74a.4.4 0 0 0-.4-.4z" style="fill:#000;stroke-width:.129849"/></svg>