<svg fill="#A096A2" xmlns="http://www.w3.org/2000/svg" xmlns:xlink="http://www.w3.org/1999/xlink" version="1.1" x="0px" y="0px" viewBox="2 2 28 28" style="enable-background:new 0 0 32 32;" xml:space="preserve"><path d="M14,25c2.67,0,5.13-0.96,7.03-2.55l6.26,6.26C27.49,28.9,27.74,29,28,29s0.51-0.1,0.71-0.29c0.39-0.39,0.39-1.02,0-1.41  l-6.26-6.26C24.04,19.13,25,16.67,25,14c0-6.07-4.93-11-11-11S3,7.93,3,14S7.93,25,14,25z M14,5c4.96,0,9,4.04,9,9s-4.04,9-9,9  s-9-4.04-9-9S9.04,5,14,5z"/><text x="0" y="47" fill="#000000" font-size="5px" font-weight="bold" font-family="'Helvetica Neue', Helvetica, Arial-Unicode, Arial, Sans-serif">Created by Dewanata Visuals</text><text x="0" y="52" fill="#000000" font-size="5px" font-weight="bold" font-family="'Helvetica Neue', Helvetica, Arial-Unicode, Arial, Sans-serif">from the Noun Project</text></svg>