<svg xmlns="http://www.w3.org/2000/svg" viewBox="0 0 100 100"><path d="M41.7.5h-1.9a45.8 45.8 0 0 0-12.9 2.7 45.6 45.6 0 0 0-11 6.4 42.2 42.2 0 0 0 8.7 70.6 41.6 41.6 0 0 0 20.7 3.5 39.4 39.4 0 0 0 21.4-9l.4-.3 22.8 23.4a5.5 5.5 0 0 0 8 0 5.8 5.8 0 0 0 0-8L74.7 66l.7-1.2a44.8 44.8 0 0 0 6.3-17.6 39.4 39.4 0 0 0 .3-5.6A42.5 42.5 0 0 0 64.5 8 40.2 40.2 0 0 0 41.7.5Zm-.5 7.3a33.6 34.4 0 0 1 33.6 34.4 33.6 34.4 0 0 1-33.6 34.3A33.6 34.4 0 0 1 7.7 42.2 33.6 34.4 0 0 1 41.2 7.8Z" style="fill:#000;stroke-width:.226797"/></svg>