<svg xmlns="http://www.w3.org/2000/svg" xml:space="preserve" viewBox="0 0 26.458 26.458"><path d="M14.975 5.292a.652.652 0 0 1 .283.06c1.477.787 1.487 14.965.01 15.754-1.476.788-14.771-6.293-14.772-7.869-.001-1.501 12.068-8.018 14.479-7.945Z" style="fill:#000;stroke-width:.318163"/><path d="M21.035 12.784c.26.438.086 1.042-.48 1.304-2.622 1.212-5.827 1.3-8.401-.09-.535-.29-.684-.922-.373-1.331a.98.98 0 0 1 1.251-.282c1.94 1.07 4.594.95 6.749-.003a1.014 1.014 0 0 1 1.254.402z" style="stroke-width:.264999" transform="matrix(0 -.70497375 .87007402 0 6.524 24.781)"/></svg>