<svg xmlns="http://www.w3.org/2000/svg" xml:space="preserve" viewBox="0 0 26.458 26.458"><path d="M14.975 5.292a.652.652 0 0 1 .283.06c1.477.787 1.487 14.965.01 15.754-1.476.788-14.771-6.293-14.772-7.869-.001-1.501 12.068-8.018 14.479-7.945Z" style="fill:#000;stroke-width:.318163"/><path d="M21.035 12.784c.26.438.086 1.042-.48 1.304-2.622 1.212-5.827 1.3-8.401-.09-.535-.29-.684-.922-.373-1.331a.98.98 0 0 1 1.251-.282c1.94 1.07 4.594.95 6.749-.003a1.014 1.014 0 0 1 1.254.402z" style="stroke-width:.264999" transform="matrix(0 -.70497375 .87007402 0 6.524 24.781)"/><path d="M21.047 12.807c.357.368.26 1.041-.282 1.401-1.295.86-2.844 1.264-4.358 1.242-1.536.008-3.126-.431-4.413-1.382-.53-.392-.587-1.078-.203-1.42.38-.338.96-.304 1.295-.056.898.665 2.128.98 3.333 1.006 1.184-.005 2.39-.304 3.33-.924.36-.238.945-.23 1.298.133z" style="stroke-width:.264999" transform="matrix(0 -.98696325 .89632303 0 8.634 29.416)"/><path d="M21.064 12.831c.43.266.52.956-.024 1.501a6.179 6.179 0 0 1-4.54 1.798 7.002 7.002 0 0 1-4.653-2c-.533-.527-.47-1.214-.05-1.498.42-.283 1.016-.144 1.348.183a5.223 5.223 0 0 0 3.419 1.463 4.368 4.368 0 0 0 3.175-1.244c.311-.312.897-.467 1.325-.203z" style="stroke-width:.264999" transform="matrix(0 -1.3291298 .89632303 0 11.304 35.081)"/></svg>